<?xml version="1.0" encoding="utf-8"?>
<!-- Generator: Adobe Illustrator 16.0.0, SVG Export Plug-In . SVG Version: 6.00 Build 0)  -->
<!DOCTYPE svg PUBLIC "-//W3C//DTD SVG 1.1//EN" "http://www.w3.org/Graphics/SVG/1.1/DTD/svg11.dtd">
<svg version="1.1" id="图层_1" xmlns="http://www.w3.org/2000/svg" xmlns:xlink="http://www.w3.org/1999/xlink" x="0px" y="0px"
	 width="20px" height="20px" viewBox="0 0 20 20" enable-background="new 0 0 20 20" xml:space="preserve">
<line fill="#FFFFFF" x1="11.784" y1="16.742" x2="11.774" y2="16.741"/>
<path fill="#FFFFFF" d="M7.174,5.54L7.174,5.54l-0.08-0.121c0.014-0.098,0.034-0.193,0.062-0.289
	C5.339,4.258,3.681,4.535,3.681,4.535h0.004H3.683c0.041,0.022,1.378,0.759,1.734,1.398C5.435,5.969,5.448,6.004,5.46,6.042
	c0.223-0.163,0.564-0.409,0.781-0.531C6.291,5.48,6.343,5.457,6.397,5.44c0.219-0.05,0.284,0.034,0.284,0.034
	s0.14,0.174,0.312,0.393c0,0,0.16-0.102,0.289-0.165L7.174,5.54z"/>
<path fill="#FFFFFF" d="M7.595,6.647c-0.013-0.02-0.033-0.049-0.062-0.086c0,0,0.239-0.078,0.344-0.186
	c0.195,0.361,0.292,0.336,0.292,0.336S8.523,6.648,8.861,6.57c0.01,0.049,0.022,0.097,0.038,0.145
	c0.058,0.188,0.151,0.362,0.274,0.514c0.239,0.434,0.85,0.984,1.333,1.212c-0.402,0.084-0.547,0.646-0.67,0.887
	C9.629,9.312,9.39,9.3,9.145,9.296c0.046-0.333,0.02-0.672-0.075-0.994C9.02,8.126,8.947,7.958,8.855,7.801
	C8.636,7.44,8.114,6.984,7.68,6.795C7.67,6.775,7.66,6.754,7.647,6.732c-0.009-0.015-0.019-0.03-0.029-0.047
	C7.608,6.668,7.603,6.661,7.595,6.647z"/>
<path fill="#FFFFFF" d="M11.791,16.527c-0.007,0.072-0.01,0.144-0.007,0.215c0,0.011,0,0.022,0,0.036
	c0.001,0.089-0.068,0.165-0.154,0.172c-0.606,0.047-2.676,0.145-3.601,0.098c-0.112-0.007-0.198-0.101-0.192-0.212
	c0-0.001,0-0.004,0-0.004c0.033-0.603,0.016-1.031,0.015-1.14c0-0.023-0.001-0.043-0.005-0.063
	c-0.036-0.229-0.084-0.455-0.144-0.678c-0.406-1.195-1.901-2.691-2.518-3.536c-0.029-0.039-0.057-0.078-0.083-0.119
	c-0.172-0.274-0.301-0.572-0.385-0.885c0,0,0.471-1,0.743-1.542c0.054,0.022,0.102,0.024,0.135-0.005
	c0.067-0.058,0.024-0.113-0.049-0.163c0.027-0.056,0.057-0.11,0.091-0.163c0.02-0.022,0.041-0.043,0.063-0.063
	c0.177-0.151,0.598-0.43,0.628-0.45h0.002c0.051-0.027,0.101-0.057,0.149-0.09l0,0C6.473,7.983,6.465,8.028,6.46,8.073
	c0,0.003,0,0.006,0,0.007c0,0.001,0,0.001,0,0.002C6.437,8.263,6.427,8.445,6.429,8.628c0,0,0,0.095,0.01,0.244l0,0
	c0.006,0.101,0.019,0.225,0.039,0.359c0.041,0.268,0.114,0.576,0.25,0.824c-0.279,0.245-0.463,0.538-0.494,0.89
	c-0.066,0.706,0.365,1.649,1.129,2.431c0.757,0.772,2.195,1.79,3.16,2.253c0.467,0.459,0.913,0.795,1.269,0.901V16.527z"/>
<path fill="#FFFFFF" d="M11.767,6.725c-0.329-0.076-0.509-0.126-0.607-0.157c-0.082-0.027-0.168-0.049-0.252-0.067
	c-0.17-0.038-0.5-0.116-1.031-0.269C9.755,6.196,9.643,6.167,9.535,6.142C9.533,6.163,9.53,6.184,9.527,6.204
	c0.075,0.023,0.147,0.052,0.218,0.086l0,0c0.032,0.016,0.063,0.032,0.094,0.051l0.04,0.025l0,0l0.063,0.036l0.061,0.033l0.033,0.019
	l0.034,0.02l0.033,0.02l0.072,0.041c0.034,0.021,0.068,0.042,0.103,0.063c0.014,0.008,0.028,0.017,0.042,0.026
	c0.057,0.036,0.113,0.075,0.17,0.116c0.011,0.009,0.021,0.016,0.034,0.025l0.038,0.028l0.049,0.039l0.033,0.027
	c0.025,0.023,0.051,0.045,0.077,0.069l0.007,0.007l0.031,0.03l0.037,0.038l0,0c0.046,0.047,0.091,0.097,0.135,0.15l0.021,0.028
	c0.011,0.014,0.022,0.028,0.034,0.043l0.001,0.002c0.02,0.027,0.038,0.054,0.057,0.083c0.057,0.085,0.106,0.176,0.147,0.271
	c0.021,0.043,0.04,0.086,0.056,0.128V7.705c0.011,0.022,0.281,0.635,0.154,0.85l0,0c0.59,0.056,0.848-0.06,0.848-0.06
	c-0.016-0.205,0-0.411,0.044-0.612c0.037-0.163,0.202-0.298,0.227-0.515C12.545,7.151,12.423,6.876,11.767,6.725z"/>
<path fill="#FFFFFF" d="M10.96,7.964c-0.251-0.768-0.939-1.068-0.939-1.068l0,0c-0.198-0.08-0.373-0.08-0.479,0.017
	C9.37,7.07,9.431,7.426,9.667,7.776c0.016-0.001,0.032,0,0.047,0.002c-0.083-0.211-0.059-0.421,0.079-0.52
	c0.177-0.128,0.472-0.022,0.658,0.235c0.186,0.256,0.194,0.572,0.018,0.698c-0.132,0.095-0.328,0.061-0.497-0.069
	c0,0.002,0,0.003,0,0.006c0.347,0.317,0.741,0.44,0.923,0.272c0.063-0.063,0.098-0.147,0.095-0.236
	C10.994,8.096,10.983,8.028,10.96,7.964z"/>
<path fill="#FFFFFF" d="M10.623,7.873c-0.009-0.039-0.022-0.074-0.042-0.108c-0.07-0.121-0.194-0.184-0.293-0.155
	c-0.014,0.004-0.027,0.009-0.038,0.017c-0.106,0.061-0.126,0.22-0.048,0.357c0.079,0.138,0.229,0.199,0.333,0.139
	C10.612,8.077,10.645,7.978,10.623,7.873z"/>
<path fill="#FFFFFF" d="M9.989,7.708c-0.007-0.027-0.017-0.055-0.031-0.08C9.906,7.54,9.814,7.495,9.74,7.514
	C9.73,7.517,9.721,7.521,9.711,7.526C9.634,7.571,9.618,7.689,9.677,7.791c0.06,0.102,0.168,0.148,0.247,0.103
	C9.979,7.86,10.004,7.787,9.989,7.708z"/>
<path fill="#FFFFFF" d="M7.68,6.793c-0.208-0.09-0.394-0.12-0.52-0.049c-0.425,0.205-0.606,0.742-0.679,1.19
	C6.751,7.751,6.893,7.529,7.2,7.316c0.374-0.257,0.538-0.375,0.538-0.375C7.725,6.889,7.706,6.84,7.68,6.793z"/>
<path fill="#FFFFFF" d="M6.828,9.972c-0.014,0.012-0.029,0.022-0.043,0.034C6.799,9.997,6.814,9.983,6.828,9.972z"/>
<path fill="#FFFFFF" d="M8.427,9.324C8.399,9.326,8.372,9.33,8.345,9.333C8.372,9.33,8.399,9.327,8.427,9.324z"/>
<circle fill="#FFFFFF" cx="6.948" cy="8.884" r="0.239"/>
<circle fill="#FFFFFF" cx="7.787" cy="9.489" r="0.413"/>
<path fill="#FFFFFF" d="M8.298,9.379C8.244,9.387,8.191,9.395,8.141,9.402C8.191,9.395,8.244,9.387,8.298,9.379z"/>
<path fill="#FFFFFF" d="M7.533,7.851c-0.608,0-1.101,0.593-1.101,1.323c0,0.73,0.493,1.322,1.101,1.322
	c0.609,0,1.102-0.592,1.102-1.322C8.635,8.444,8.143,7.851,7.533,7.851z M7.34,10.157c-0.412,0-0.744-0.399-0.744-0.892
	c0-0.494,0.332-0.894,0.744-0.894c0.411,0,0.744,0.4,0.744,0.894C8.083,9.758,7.75,10.157,7.34,10.157L7.34,10.157z"/>
<path fill="#FFFFFF" d="M5.46,8.87c-0.271,0.542-0.743,1.542-0.743,1.542c-0.092-0.327-0.146-0.664-0.161-1.003l0,0
	c0.042-0.161,0.24-0.624,0.396-0.969c0.015,0.017,0.031,0.034,0.047,0.05C5.097,8.583,5.303,8.809,5.46,8.87z"/>
<path fill="#FFFFFF" d="M5.703,8.476c-0.023,0.02-0.045,0.041-0.065,0.063C5.604,8.592,5.574,8.646,5.547,8.702
	c-0.075-0.048-0.18-0.09-0.234-0.123C5.214,8.52,5.082,8.347,5.029,8.269c0.059-0.129,0.103-0.22,0.114-0.24
	C5.143,8.029,5.436,8.569,5.703,8.476z"/>
<path fill="#FFFFFF" d="M9.533,5.794c-0.015-0.067-0.221-0.56-0.694-0.812c-0.474-0.253-1.462-0.12-1.577-0.044
	C7.254,4.944,7.246,4.95,7.24,4.958C7.2,5.009,7.172,5.068,7.156,5.131c-0.028,0.094-0.048,0.19-0.062,0.288l0.188,0.283
	c0.043-0.023,0.089-0.04,0.138-0.047c0.095,0,0.545,0.507,0.504,0.649C7.915,6.331,7.899,6.355,7.878,6.375
	C8.073,6.736,8.17,6.711,8.17,6.711s1.172-0.21,1.287-0.333c0.046-0.049,0.07-0.139,0.081-0.236c0.003-0.026,0.005-0.054,0.006-0.08
	C9.549,5.973,9.545,5.883,9.533,5.794z M8.966,6.018l-0.048,0.01l0,0L8.757,6.062L8.504,6.116L8.32,6.156L7.856,5.523l-0.228-0.31
	c0.108-0.03,0.218-0.047,0.33-0.054c0.026,0,0.052-0.002,0.079-0.002h0.049H8.11c0.027,0,0.055,0.002,0.082,0.006
	c0.01,0,0.02,0.003,0.03,0.004l0.042,0.005l0,0c0.019,0.002,0.038,0.006,0.056,0.01l0.033,0.007
	c0.024,0.005,0.046,0.011,0.068,0.017l0.034,0.01c0.081,0.023,0.161,0.056,0.235,0.097l0.017,0.008l0.012,0.007
	C8.727,5.332,8.733,5.337,8.74,5.341l0.003,0.001C8.755,5.351,8.769,5.358,8.78,5.367c0.039,0.026,0.074,0.056,0.105,0.089
	C9.039,5.63,9.218,5.959,9.218,5.959L8.966,6.018z"/>
<path fill="#FFFFFF" d="M7.736,6.941c0,0-0.162,0.118-0.538,0.375C6.84,7.564,6.704,7.828,6.331,8.023H6.329L6.281,8.047
	c-0.412,0.2-0.9-0.158-0.9-0.158L5.14,7.525l0,0L4.981,7.286C4.953,7.222,4.933,7.153,4.922,7.083
	C4.932,7.099,5.243,7.597,5.5,7.706c0.257,0.107,0.542,0.123,0.863-0.089c0.32-0.212,1.254-0.935,1.254-0.935
	C7.718,6.844,7.736,6.941,7.736,6.941z"/>
<path fill="#FFFFFF" d="M7.595,6.647c-0.013-0.02-0.033-0.049-0.062-0.086C7.417,6.403,7.185,6.107,6.993,5.865
	C6.821,5.647,6.681,5.473,6.681,5.473S6.617,5.39,6.397,5.439C6.18,5.487,5.241,6.205,5.241,6.205S4.852,6.608,4.924,7.086
	c0.009,0.015,0.32,0.512,0.577,0.621S6.043,7.83,6.363,7.618c0.321-0.212,1.254-0.935,1.254-0.935
	C7.611,6.672,7.603,6.661,7.595,6.647z M7.039,6.826L6.787,7.013L6.542,7.194L6.313,7.366L6.262,7.404
	C6.156,7.482,6.026,7.521,5.895,7.516c-0.135-0.006-0.3-0.023-0.4-0.074C5.396,7.338,5.316,7.217,5.259,7.086
	c0,0-0.186-0.266,0.069-0.623C5.584,6.106,6.4,5.676,6.4,5.676l0.113,0.171l0.642,0.894L7.039,6.826z"/>
<path fill="#FFFFFF" d="M5.417,5.934c0,0-2.801-0.786-4.729,0.773c0,0,2.535-0.043,4.03,0.933c0,0-2.137,0.26-3.109,1.43l0,0
	c0.06-0.014,2.347-0.561,2.945,0.315c0,0,0,0.008,0,0.023c0.041-0.16,0.239-0.623,0.395-0.969C4.873,8.344,4.898,8.304,4.898,8.304
	c0.005-0.026,0.078-0.121,0.115-0.059c0.004,0.006,0.009,0.014,0.015,0.022c0.059-0.128,0.103-0.221,0.114-0.24
	c0.043-0.067,0-0.487-0.001-0.501l0,0L4.981,7.287C4.953,7.223,4.933,7.155,4.922,7.086C4.904,6.957,4.916,6.825,4.954,6.701
	c0.04-0.131,0.179-0.352,0.235-0.438c0.03-0.037,0.049-0.057,0.049-0.057s0.089-0.068,0.22-0.165
	C5.447,6.005,5.434,5.969,5.417,5.934z"/>
<line fill="#FFFFFF" x1="11.35" y1="13.986" x2="11.35" y2="13.985"/>
<path fill="#FFFFFF" d="M17.752,9.833c-0.292-0.667-1.039-1.403-1.707-1.641c-0.666-0.239-1.635-0.14-1.992-0.08
	c-0.358,0.06-1.805,0.384-1.805,0.384l0,0l-0.102,0.1c-0.005,0.005-0.01,0.012-0.015,0.018c-0.028,0.03-0.063,0.054-0.101,0.068
	c-0.196,0.087-0.611,0.155-1.199,0.017c-0.561-0.142-0.728,0.545-0.862,0.812L9.092,9.535c-0.053,0.192-0.139,0.373-0.256,0.533
	c-0.036,0.063-0.444,0.755-1.14,0.811c-0.352,0.028-0.651-0.323-0.82-0.576c-0.153,0.265-0.208,0.385-0.235,0.706
	c-0.061,0.653,0.338,1.527,1.045,2.248c0.7,0.714,2.031,1.656,2.925,2.085c0.412,0.406,0.498,0.689,0.874,0.993
	c0.035,0.029,0.071,0.052,0.112,0.072l0.042,0.018c-0.14-0.041-0.275-0.104-0.399-0.187c0.199,0.142,0.387,0.241,0.553,0.29l0,0
	c0.353,0.105,0.62-0.018,0.741-0.47c0.302-1.148-0.326-2.035-0.326-2.035c0.876,0,1.608-0.109,1.974-0.089
	c0.801,0.043,0.79,0.217,0.919,0.325c0.023,0.019,0.063,0.074,0.123,0.145c0.102,0.123,0.261,0.292,0.474,0.371
	c0.316,0.12,0.753,0.033,1.294-0.721c0.04-0.056,0.083-0.12,0.125-0.185C18.28,12.062,18.043,10.5,17.752,9.833z M11.978,15.743
	c-0.39,0.055-0.942-0.66-1.3-0.983c-0.228-0.211-0.86-0.713-1.275-1.063c-0.104-0.087-0.213-0.168-0.328-0.238
	c-0.197-0.122-0.452-0.321-0.6-0.537c-0.25-0.361-0.743-1.194-0.897-1.967c0.018,0.052,0.599,1.746,1.831,2.468
	c0.228,0.151,0.48,0.27,0.744,0.346c0.588,0.168,1.184,0.235,1.739,0.253C12.149,14.288,12.368,15.689,11.978,15.743z M17.054,9.865
	c-0.049,0.312-0.321,0.155-0.345,0.024c-0.024-0.129-0.24-0.585-0.435-0.771c-0.052-0.043-0.062-0.068-0.061-0.092
	c0.008-0.055,0.056-0.097,0.112-0.094c0.02,0.002,0.038,0.005,0.057,0.011C16.501,8.979,17.102,9.552,17.054,9.865L17.054,9.865z"/>
<polygon fill="#FFFFFF" points="9.145,9.296 9.145,9.296 9.145,9.296 "/>
<g id="Combined-Shape">
	<g>
		<path id="path-1" fill="#FFFFFF" d="M16.871,3.98h0.662c0.365,0,0.662,0.296,0.662,0.662c0,0.366-0.297,0.662-0.662,0.662h-0.662
			v0.662c0,0.365-0.296,0.662-0.661,0.662c-0.366,0-0.661-0.297-0.661-0.662V5.303h-0.662c-0.365,0-0.662-0.296-0.662-0.662
			c0-0.365,0.297-0.662,0.662-0.662h0.662V3.318c0-0.366,0.295-0.662,0.661-0.662c0.365,0,0.661,0.296,0.661,0.662V3.98z"/>
	</g>
	<path fill="none" stroke="#FFFFFF" stroke-width="0.1" d="M16.922,3.93h0.611c0.394,0,0.712,0.318,0.712,0.711
		s-0.318,0.712-0.712,0.712l-0.611-0.051v0.662c0,0.393-0.318,0.712-0.712,0.712s-0.712-0.319-0.712-0.712l0.051-0.611h-0.662
		c-0.394,0-0.712-0.319-0.712-0.712s0.318-0.711,0.712-0.711l0.611,0.05V3.318c0-0.393,0.318-0.712,0.712-0.712
		s0.712,0.319,0.712,0.712V3.93z"/>
</g>
</svg>
